<?xml version="1.0" encoding="utf-8"?>
<!-- Generator: Adobe Illustrator 16.0.0, SVG Export Plug-In . SVG Version: 6.00 Build 0)  -->
<!DOCTYPE svg PUBLIC "-//W3C//DTD SVG 1.1//EN" "http://www.w3.org/Graphics/SVG/1.1/DTD/svg11.dtd">
<svg version="1.1" id="Capa_1" xmlns="http://www.w3.org/2000/svg" xmlns:xlink="http://www.w3.org/1999/xlink" x="0px" y="0px"
	 width="80px" height="50px" viewBox="-28.664 -15.24 80 50" enable-background="new -28.664 -15.24 80 50" xml:space="preserve">
<path fill="#CC1F49" d="M27.596,27.469v0.106V27.469L27.596,27.469z M27.663,22.213c0.031,1.569,0.02,3.425-0.188,4.298
	l-0.116,0.131l-0.125,0.135l-0.128,0.137l-0.141,0.133l-0.136,0.133l-0.152,0.126l-0.146,0.129l-0.157,0.128l-0.162,0.124
	l-0.167,0.129l-0.174,0.119l0,0l-0.178,0.12l-0.184,0.115l-0.188,0.122l0,0l-0.192,0.113l-0.197,0.119l-0.201,0.111l-0.208,0.108
	l-0.215,0.111l-0.217,0.101l0,0l-0.22,0.11l-0.229,0.101l-0.229,0.102l-0.237,0.096l-0.246,0.101l-0.239,0.094l-0.245,0.091
	L22.19,29.74l0,0l-0.255,0.098l-0.261,0.083l-0.269,0.085l-0.264,0.076h-0.01l-0.269,0.085l0,0l-0.277,0.083l-0.279,0.071
	l-0.282,0.076l-0.294,0.069l-0.288,0.07l-0.296,0.061l-0.297,0.065l-0.301,0.065l-0.309,0.062l-0.307,0.057l0,0l-0.312,0.055
	l-0.317,0.059l-0.321,0.053l-0.317,0.045l-0.329,0.051l-0.313,0.052l-0.327,0.048h0.004l-0.33,0.03l-0.332,0.044l-0.331,0.037
	h-0.005l-0.338,0.028h-0.007l-0.334,0.026l0,0L13.687,31.4h-0.005l-0.343,0.02l0,0l-0.337,0.022l-0.348,0.02l0,0l-0.358,0.013
	l-0.355,0.009l-0.351,0.005l0,0h-0.357H10.87h-0.327h-0.321L9.9,31.483l-0.321-0.016l-0.323-0.011l-0.319-0.015l-0.316-0.014l0,0
	l-0.313-0.021l-0.312-0.016l0,0l-0.309-0.032H7.684l-0.306-0.021l0,0l-0.309-0.022l-0.306-0.034l-0.302-0.035l0,0l-0.298-0.028l0,0
	l-0.298-0.046l-0.298-0.039H5.56l-0.291-0.037l-0.291-0.05l0,0l-0.287-0.041l-0.286-0.057L4.118,30.9l-0.28-0.048l0,0l-0.277-0.057
	l0,0l-0.276-0.059L3.009,30.68l-0.271-0.055L2.472,30.56H2.453L2.19,30.493l-0.264-0.041l0,0l-0.259-0.067l-0.26-0.065l-0.256-0.067
	l-0.25-0.076l-0.25-0.074l-0.246-0.069l-0.243-0.079l-0.237-0.082l-0.236-0.085l-0.232-0.076l-0.228-0.085l-0.225-0.078
	l-0.225-0.096l-0.217-0.092l-0.214-0.092l-0.212-0.098l-0.208-0.091l-0.199-0.101l-0.199-0.096l-0.195-0.098l-0.188-0.096h-0.011
	l-0.19-0.103l-0.182-0.103l-0.179-0.102l-0.173-0.109l-0.172-0.104l-0.165-0.113l-0.164-0.106l-0.156-0.115l-0.153-0.111
	l-0.153-0.11l-0.147-0.118l-0.143-0.113l-0.137-0.11c-0.01,0.098-0.019,0.2-0.021,0.311v-7.85l0.002-0.087v-0.085l0.007-0.087
	l0.01-0.08l0.068,0.062l0.063,0.055l0.007,0.007l0.074,0.061l0.06,0.053l0.017,0.013l0.077,0.061l0.051,0.051l0.028,0.013
	l0.078,0.062l0.049,0.041l0.029,0.018l0.085,0.064l0.041,0.029l0.042,0.025l0.083,0.062l0.033,0.023l0.051,0.037l0.085,0.059
	l0.024,0.016l0.062,0.041l0.092,0.059l0.014,0.014l0.071,0.045l0.091,0.055l0.01,0.007l0.082,0.055l0.089,0.052h0.002l0.094,0.057
	l0.083,0.05l0.014,0.007l0.096,0.052l0.073,0.042l0.022,0.013l0.099,0.057l0.064,0.035l0.032,0.018l0.103,0.057l0.056,0.027
	l0.044,0.028l0.101,0.051l0.05,0.023l0.057,0.033l0.103,0.045l0.042,0.022l0.063,0.034l0.109,0.051l0.026,0.015l0.081,0.037
	l0.109,0.048l0.016,0.011l0.096,0.044l0.106,0.046l0.009,0.006l0.105,0.048l0.108,0.042l0.002,0.009l0.118,0.045l0.096,0.046
	l0.018,0.005l0.118,0.05l0.086,0.032l0.03,0.011l0.12,0.053l0.075,0.026l0.046,0.013l0.117,0.053l0.064,0.023l0.059,0.02l0.12,0.044
	l0.055,0.02l0.068,0.023l0.131,0.048l0.041,0.014l0.083,0.032l0.127,0.041l0.031,0.014l0.099,0.032l0.133-0.034l0.016,0.008
	l0.117,0.037l0.125,0.046h0.002l0.129,0.039l0.121,0.035l0.01,0.007l0.129,0.041l0.111,0.021l0.024,0.009l0.133,0.044l0.097,0.023
	l0.041,0.014l0.136,0.036l0.084,0.024l0.053,0.018l0.134,0.03c2.635,0.677,5.719,1.064,9.018,1.064
	c3.756,0,7.237-0.503,10.096-1.352l0.142-0.046l0.026-0.007l0.111-0.039l0.142-0.043l0.02-0.009l0.112-0.033l0.142-0.05l0.013-0.007
	l0.123-0.034l0.126-0.051l0.011-0.008l0.121-0.039l0.132-0.049l0.01-0.008l0.118-0.044l0.137-0.046l0.125-0.052l0.122-0.042
	l0.006-0.009l0.119-0.048l0.116-0.048l0.013-0.004l0.128-0.05l0.107-0.046h0.011l0.122-0.055l0.103-0.046l0.019-0.002l0.116-0.057
	l0.094-0.041l0.022-0.014l0.116-0.05l0.09-0.041l0.027-0.016l0.116-0.054l0.08-0.04l0.029-0.02l0.109-0.052l0.078-0.044l0.038-0.013
	l0.107-0.053l0.065-0.043l0.038-0.02l0.103-0.055l0.071-0.041l0.036-0.02l0.104-0.059l0.063-0.035l0.047-0.026l0.098-0.052
	l0.057-0.039l0.047-0.031l0.096-0.052l0.05-0.037l0.054-0.032l0.089-0.062l0.04-0.034l0.05-0.031l0.092-0.064l0.047-0.026
	l0.05-0.037l0.09-0.065L25.876,20l0.058-0.035l0.089-0.063l0.032-0.023l0.055-0.042l0.08-0.061l0.032-0.023l0.142-0.105l0.019-0.023
	l0.061-0.044l0.08-0.064l0.017-0.021l0.065-0.047l0.072-0.063l0.019-0.018l0.058-0.05l0.072-0.063l0.019-0.021l0.056-0.048
	l0.069-0.065l0.009-0.013l0.067-0.051l0.063-0.064l0.006-0.014l0.123-0.131v0.044l0.18-0.191l0.058-0.065v-0.007v0.007l0.007,0.03
	v0.003l0.009,0.03l0,0l0.012,0.03l0,0v0.041l0,0l0.009,0.035l0.009,0.037l0.004,0.032l0,0l0.005,0.033l0,0l0.01,0.032v0.002
	l0.004,0.028l0,0l0.009,0.037v0.007l0.005,0.028v0.009l0.006,0.034l0.007,0.033v0.039l0.006,0.032l0.006,0.028v0.046l0.007,0.03
	v0.037l0.007,0.037l0.002,0.035l0.004,0.041l0.005,0.037v0.026v0.045l0.005,0.035v0.041v0.033v0.041v0.035v0.03v0.028v0.046v0.004
	l0.005,0.044l0,0v0.05v0.009v0.046v0.02v0.043v0.014l0.004,0.05v0.016v0.045l0.005,0.026v0.042v0.034v0.046v0.041l0.004,0.039v0.051
	v0.032v0.055l0.005,0.028l0.004,0.061v0.024l0.004,0.073v0.018v0.076v0.016l0.003,0.089v0.007l0.002,0.103l0,0l0.006,0.098v0.004
	l0.002,0.101l0.004,0.013v0.085v0.028l0.005,0.081v0.039v0.078v0.035l0.004,0.071v0.048v0.065v0.062v0.054l0.009,0.063v0.055v0.071
	v0.046l0.004,0.076H27.663L27.663,22.213L27.663,22.213z M27.604,7.606c0,0.716,0.238,5.273-0.13,6.779h-0.009v0.012
	c-1.079,1.287-2.967,2.413-5.387,3.272v-0.011c-3.05,1.068-6.955,1.71-11.209,1.71c-3.831,0-7.378-0.522-10.27-1.412v0.024
	c-2.361-0.728-4.287-1.693-5.58-2.814l-0.019,0.287v-0.144l-0.009,0.157V7.619c0-0.117,0.006-0.229,0.018-0.345l0.01,0.002
	l0.002-0.016c2.862,2.499,8.883,4.223,15.85,4.223c7.65,0,14.166-2.078,16.604-4.987C27.556,6.851,27.604,7.22,27.604,7.606z
	 M27.596-5.269c0,0.719,0.232,5.275-0.13,6.778c-2.432,2.906-8.947,4.987-16.601,4.987c-6.968,0-12.989-1.725-15.853-4.228
	c-0.006,0.11-0.016,0.211-0.02,0.314v-7.848c0-0.112,0.006-0.226,0.018-0.342C-2.128-3.108,3.893-1.38,10.863-1.38
	c7.648,0,14.171-2.083,16.601-4.994C27.551-6.019,27.596-5.655,27.596-5.269z M11.292-13.276c7.029,0,12.73,2.196,12.73,4.908
	c0,2.714-5.701,4.915-12.73,4.915c-7.03,0-12.729-2.196-12.729-4.915C-1.435-11.08,4.264-13.276,11.292-13.276z"/>
</svg>
