<?xml version="1.0" encoding="utf-8"?>
<!-- Generator: Adobe Illustrator 16.0.0, SVG Export Plug-In . SVG Version: 6.00 Build 0)  -->
<!DOCTYPE svg PUBLIC "-//W3C//DTD SVG 1.1//EN" "http://www.w3.org/Graphics/SVG/1.1/DTD/svg11.dtd">
<svg version="1.1" id="Capa_1" xmlns="http://www.w3.org/2000/svg" xmlns:xlink="http://www.w3.org/1999/xlink" x="0px" y="0px"
	 width="80px" height="50px" viewBox="-28.664 -15.24 80 50" enable-background="new -28.664 -15.24 80 50" xml:space="preserve">
<path fill="#CC1F49" d="M29.678-4.009l-9.049-9.19l-22.874,0.011c-1.085,0.093-2.083,0.573-2.893,1.388
	c-0.516,0.619-1.249,1.462-1.365,3.046c-0.004,0.055-0.002,0.106-0.002,0.157c0.002,0.055,0.002,0.106,0.002,0.159v36.681
	c0,1.489,0.808,2.681,1.48,3.281c0.892,0.771,1.83,1.173,3.01,1.173c8.86,0,17.722,0.011,26.579,0.011
	c1.723,0,2.508-0.263,3.606-1.156c0.554-0.492,1.491-1.582,1.491-3.007L29.678-4.009z M7.282,23.202l-6.441-6.539l6.434-6.534
	l2.146,2.178l-4.296,4.366l4.293,4.361L7.282,23.202z M15.993,10.124l6.438,6.537l-6.44,6.541l-2.147-2.177l4.295-4.364l-4.29-4.359
	L15.993,10.124z M25.157,0.583l0.012,27.567h-27.15L-2.003-8.623l18.059,0.023l0.032,9.185L25.157,0.583z"/>
</svg>
