<?xml version="1.0" encoding="utf-8"?>
<!-- Generator: Adobe Illustrator 16.0.0, SVG Export Plug-In . SVG Version: 6.00 Build 0)  -->
<!DOCTYPE svg PUBLIC "-//W3C//DTD SVG 1.1//EN" "http://www.w3.org/Graphics/SVG/1.1/DTD/svg11.dtd">
<svg version="1.1" id="Capa_1" xmlns="http://www.w3.org/2000/svg" xmlns:xlink="http://www.w3.org/1999/xlink" x="0px" y="0px"
	 width="80px" height="50px" viewBox="-28.664 -15.24 80 50" enable-background="new -28.664 -15.24 80 50" xml:space="preserve">
<path fill="#CC1F49" d="M30.688-11.397H-8.012c-2.688,0-4.884,2.228-4.884,4.953v24.529c0,2.715,2.176,4.938,4.846,4.957H6.492
	v4.938h9.691v-4.938h14.543c2.668-0.02,4.843-2.244,4.843-4.957V-6.444C35.568-9.17,33.371-11.397,30.688-11.397z M30.722,18.124
	H-8.052c0-8.203,0.011-16.403,0-24.6h38.774V18.124L30.722,18.124z"/>
<path fill="#CC1F49" d="M4.954,7.067C5.49,7.103,6.059,7.079,6.623,7.073c0.114,0.438,0.304,0.874,0.531,1.275
	C6.815,8.696,6.505,9.016,6.165,9.363c-0.982,1.001,0.586,2.951,1.728,1.722c0.23-0.252,0.446-0.457,0.982-1.004
	c0.404,0.239,0.814,0.43,1.259,0.547c0,0.508,0,1.051,0,1.562c0,1.357,2.395,1.447,2.399-0.029c0-0.504,0.005-1.033,0.005-1.533
	c0.432-0.117,0.901-0.322,1.282-0.555c0.339,0.34,0.68,0.686,1.018,1.026c1.064,1.041,2.759-0.668,1.738-1.699
	c-0.352-0.352-0.703-0.71-1.059-1.06c0.238-0.41,0.413-0.843,0.523-1.291c0.526,0,0.797,0,1.388-0.004
	c1.042-0.011,1.523-1.248,0.857-2.107C18.125,4.79,17.91,4.58,17.548,4.58c-0.509,0-1.015,0.006-1.52,0.006
	c-0.108-0.425-0.291-0.88-0.519-1.277c0.354-0.354,0.72-0.706,1.064-1.077c0.444-0.462,0.321-1.278-0.067-1.617
	c-0.384-0.458-1.206-0.57-1.645-0.123c-0.354,0.365-0.696,0.731-1.062,1.096c-0.414-0.252-0.785-0.42-1.233-0.528
	c-0.009-0.558,0.018-1.11-0.004-1.665c-0.048-1.243-2.435-1.327-2.418,0.228c0.007,0.479-0.011,0.95-0.002,1.431
	C9.71,1.17,9.265,1.343,8.87,1.578L7.782,0.48C6.671-0.273,5.273,0.961,6.043,2.202l1.111,1.125C6.925,3.73,6.734,4.19,6.623,4.632
	C5.915,4.636,5.52,4.604,5.053,4.647C3.734,4.783,3.824,7,4.954,7.067z M9.623,4.077c0.966-0.965,2.434-0.982,3.438-0.011
	c0.994,0.971,0.969,2.532,0.002,3.492c-0.967,0.958-2.488,1.001-3.435,0.006C8.653,6.531,8.665,5.016,9.623,4.077z"/>
</svg>
