<?xml version="1.0" encoding="utf-8"?>
<!-- Generator: Adobe Illustrator 16.0.0, SVG Export Plug-In . SVG Version: 6.00 Build 0)  -->
<!DOCTYPE svg PUBLIC "-//W3C//DTD SVG 1.1//EN" "http://www.w3.org/Graphics/SVG/1.1/DTD/svg11.dtd">
<svg version="1.1" id="Capa_1" xmlns="http://www.w3.org/2000/svg" xmlns:xlink="http://www.w3.org/1999/xlink" x="0px" y="0px"
	 width="80px" height="50px" viewBox="-15 0 80 50" enable-background="new -15 0 80 50" xml:space="preserve">
<path fill="#CC1F49" d="M31.178,6.391l11.893,6.968c0.606,0.365,0.888,0.94,0.896,1.676v4.25c2.18,0.962,3.705,3.156,3.705,5.712
	c0,2.553-1.525,4.748-3.705,5.709v4.365c-0.005,0.717-0.355,1.248-0.982,1.627l-11.801,6.92c0,0.051,0,0.103,0,0.152
	C31.184,47.211,28.416,50,25,50s-6.184-2.792-6.184-6.229c0-0.051,0-0.103,0.002-0.152L6.93,36.649
	c-0.613-0.367-0.889-0.934-0.899-1.675v-4.258c-2.179-0.962-3.703-3.159-3.703-5.711c0-2.558,1.524-4.75,3.703-5.712v-4.357
	c0.008-0.719,0.361-1.247,0.98-1.628l11.806-6.918c-0.002-0.05-0.002-0.094-0.002-0.143c0-3.445,2.771-6.232,6.187-6.232
	s6.183,2.79,6.183,6.232C31.184,6.297,31.184,6.341,31.178,6.391z M8.513,18.771c3.412,0,6.179,2.794,6.179,6.235
	c0,3.442-2.767,6.233-6.179,6.233c-0.313,0-0.617-0.026-0.917-0.068v2.98c0.013,0.678,0.264,1.201,0.825,1.539l10.666,6.252
	c0.774-2.551,3.13-4.406,5.915-4.406c2.781,0,5.143,1.855,5.911,4.406l10.591-6.209c0.572-0.347,0.893-0.832,0.896-1.49v-3.08
	c-0.295,0.045-0.599,0.063-0.91,0.063c-3.412,0-6.185-2.789-6.185-6.229s2.771-6.232,6.185-6.232c0.312,0,0.615,0.025,0.91,0.067
	v-2.973c-0.01-0.679-0.262-1.203-0.821-1.542l-10.666-6.25c-0.772,2.553-3.132,4.414-5.911,4.414c-2.788,0-5.145-1.861-5.918-4.414
	L8.497,14.276c-0.569,0.347-0.896,0.831-0.901,1.491v3.075C7.896,18.799,8.199,18.771,8.513,18.771z"/>
</svg>
