<?xml version="1.0" encoding="utf-8"?>
<!-- Generator: Adobe Illustrator 16.0.0, SVG Export Plug-In . SVG Version: 6.00 Build 0)  -->
<!DOCTYPE svg PUBLIC "-//W3C//DTD SVG 1.1//EN" "http://www.w3.org/Graphics/SVG/1.1/DTD/svg11.dtd">
<svg version="1.1" id="Capa_1" xmlns="http://www.w3.org/2000/svg" xmlns:xlink="http://www.w3.org/1999/xlink" x="0px" y="0px"
	 width="22.672px" height="14.667px" viewBox="0 0 22.672 14.667" enable-background="new 0 0 22.672 14.667" xml:space="preserve">
<g>
	<path fill="#FFFFFF" d="M16.484,5.892h-0.283V4.562c0-2.461-1.953-4.517-4.394-4.56c-0.066-0.002-0.2-0.002-0.267,0
		C9.1,0.045,7.147,2.1,7.147,4.562v1.331H6.864c-0.439,0-0.795,0.452-0.795,1.01v6.673c0,0.558,0.356,1.014,0.795,1.014h9.62
		c0.439,0,0.796-0.456,0.796-1.014V6.902C17.28,6.344,16.923,5.892,16.484,5.892z M12.576,10.232v2.016
		c0,0.23-0.194,0.426-0.425,0.426h-0.954c-0.23,0-0.424-0.195-0.424-0.426v-2.016c-0.224-0.222-0.354-0.526-0.354-0.863
		c0-0.641,0.493-1.189,1.122-1.215c0.066-0.002,0.2-0.002,0.267,0c0.629,0.025,1.122,0.574,1.122,1.215
		C12.929,9.706,12.799,10.01,12.576,10.232z M14.328,5.892h-2.521h-0.267h-2.52V4.562c0-1.465,1.192-2.677,2.653-2.677
		c1.463,0,2.654,1.212,2.654,2.677V5.892L14.328,5.892z"/>
</g>
</svg>
