<?xml version="1.0" encoding="utf-8"?>
<!-- Generator: Adobe Illustrator 16.0.0, SVG Export Plug-In . SVG Version: 6.00 Build 0)  -->
<!DOCTYPE svg PUBLIC "-//W3C//DTD SVG 1.1//EN" "http://www.w3.org/Graphics/SVG/1.1/DTD/svg11.dtd">
<svg version="1.1" id="Capa_1" xmlns="http://www.w3.org/2000/svg" xmlns:xlink="http://www.w3.org/1999/xlink" x="0px" y="0px"
	 width="22.672px" height="14.667px" viewBox="0 0 22.672 14.667" enable-background="new 0 0 22.672 14.667" xml:space="preserve">
<g>
	<path fill-rule="evenodd" clip-rule="evenodd" fill="#FFFFFF" d="M9.708,6.974C8.945,7.044,8.816,7.39,8.842,7.937
		c0.029,0.604-0.343,0.896-0.904,0.814C7.574,8.699,7.358,8.505,7.355,8.118c-0.001-0.159-0.03-0.324,0-0.477
		c0.092-0.465-0.282-0.527-0.56-0.604c-0.133-0.038-0.332,0.101-0.48,0.193C6.194,7.304,6.112,7.435,6,7.527
		c-0.356,0.295-0.675,0.271-0.993-0.06c-0.338-0.354-0.35-0.673-0.034-1.03c0.076-0.085,0.169-0.16,0.241-0.249
		c0.13-0.164,0.387-0.244,0.235-0.567C5.309,5.322,5.191,5.093,4.802,5.157c-0.167,0.027-0.348,0-0.519-0.027
		C3.863,5.061,3.681,4.793,3.708,4.31c0.023-0.394,0.216-0.617,0.624-0.631c0.131-0.003,0.26-0.008,0.391-0.012
		c0.465-0.008,0.75-0.252,0.792-0.695c0.007-0.07-0.044-0.161-0.096-0.22C5.306,2.621,5.176,2.503,5.053,2.38
		C4.641,1.964,4.625,1.682,4.991,1.307C5.38,0.908,5.674,0.913,6.112,1.318C6.37,1.557,6.549,1.95,7.038,1.653
		c0.208-0.126,0.301-0.229,0.29-0.456C7.32,1.024,7.32,0.847,7.34,0.675c0.049-0.42,0.304-0.656,0.714-0.674
		c0.424-0.017,0.727,0.217,0.798,0.636c0.021,0.128,0.012,0.261,0.013,0.39c0.002,0.519,0.108,0.661,0.606,0.747
		c0.089,0.017,0.211-0.047,0.292-0.108c0.136-0.106,0.246-0.246,0.375-0.362c0.397-0.353,0.717-0.353,1.063-0.006
		c0.372,0.372,0.372,0.671-0.007,1.089c-0.087,0.097-0.169,0.203-0.273,0.279c-0.23,0.17-0.219,0.348-0.12,0.599
		c0.1,0.249,0.21,0.392,0.497,0.357c0.142-0.019,0.29-0.005,0.434,0.01c0.538,0.061,0.738,0.294,0.722,0.831
		c-0.012,0.473-0.216,0.671-0.744,0.711c-0.129,0.01-0.262,0.021-0.39,0.002c-0.29-0.039-0.424,0.077-0.542,0.354
		c-0.12,0.281-0.083,0.456,0.136,0.636c0.101,0.081,0.189,0.18,0.277,0.276c0.34,0.379,0.329,0.697-0.035,1.06
		c-0.341,0.342-0.643,0.349-1.016-0.012C9.954,7.311,9.805,7.091,9.708,6.974z M9.566,4.394c0.002-0.853-0.627-1.482-1.481-1.479
		C7.264,2.917,6.617,3.551,6.608,4.362C6.598,5.197,7.248,5.863,8.075,5.87C8.922,5.877,9.564,5.241,9.566,4.394z"/>
	<path fill-rule="evenodd" clip-rule="evenodd" fill="#FFFFFF" d="M16.607,12.34c-0.557,0.497-0.557,0.497-0.294,1.189
		c0.214,0.562,0.025,0.922-0.553,1.08c-0.349,0.095-0.596-0.01-0.754-0.329c-0.07-0.144-0.16-0.285-0.19-0.437
		c-0.082-0.414-0.378-0.366-0.687-0.396c-0.342-0.036-0.374,0.196-0.462,0.401c-0.336,0.789-0.687,0.966-1.252,0.633
		c-0.304-0.179-0.422-0.427-0.301-0.769c0.053-0.15,0.115-0.297,0.173-0.444c0.08-0.206,0.239-0.384-0.021-0.612
		c-0.246-0.216-0.437-0.407-0.768-0.169c-0.102,0.074-0.24,0.102-0.363,0.142c-0.474,0.155-0.753,0.027-0.937-0.426
		c-0.182-0.446-0.066-0.726,0.394-0.946c0.091-0.043,0.185-0.082,0.278-0.121c0.419-0.178,0.593-0.522,0.454-0.937
		c-0.024-0.069-0.107-0.13-0.177-0.167c-0.154-0.078-0.316-0.142-0.476-0.208c-0.55-0.234-0.665-0.474-0.463-0.968
		c0.205-0.5,0.503-0.618,1.042-0.413c0.095,0.038,0.188,0.08,0.28,0.118c0.196,0.084,0.374,0.21,0.569-0.04
		c0.166-0.216,0.426-0.363,0.212-0.694c-0.084-0.13-0.127-0.292-0.171-0.443c-0.125-0.427,0.029-0.742,0.434-0.912
		c0.383-0.161,0.758-0.033,0.962,0.335c0.056,0.102,0.113,0.211,0.129,0.322c0.075,0.538,0.469,0.493,0.844,0.463
		c0.074-0.007,0.165-0.098,0.207-0.173c0.089-0.165,0.144-0.347,0.227-0.517c0.236-0.495,0.54-0.614,1.016-0.411
		c0.454,0.195,0.575,0.488,0.403,0.982c-0.043,0.123-0.07,0.257-0.144,0.362c-0.203,0.291-0.024,0.451,0.153,0.663
		c0.187,0.223,0.348,0.198,0.562,0.091c0.129-0.065,0.268-0.114,0.404-0.158c0.475-0.153,0.779-0.007,0.969,0.459
		c0.181,0.449,0.069,0.732-0.382,0.956c-0.104,0.052-0.217,0.084-0.317,0.142c-0.181,0.101-0.461,0.065-0.443,0.426
		c0.016,0.34,0.039,0.567,0.434,0.705c0.787,0.273,0.935,0.59,0.656,1.164c-0.183,0.377-0.455,0.507-0.855,0.374
		C17.127,12.567,16.864,12.445,16.607,12.34z M15.728,10.48c-0.007-0.764-0.719-1.453-1.494-1.448
		c-0.833,0.005-1.479,0.69-1.466,1.553c0.012,0.771,0.691,1.437,1.458,1.43C15.061,12.005,15.735,11.316,15.728,10.48z"/>
</g>
</svg>
