<?xml version="1.0" encoding="utf-8"?>
<!-- Generator: Adobe Illustrator 16.0.0, SVG Export Plug-In . SVG Version: 6.00 Build 0)  -->
<!DOCTYPE svg PUBLIC "-//W3C//DTD SVG 1.1//EN" "http://www.w3.org/Graphics/SVG/1.1/DTD/svg11.dtd">
<svg version="1.1" id="Capa_1" xmlns="http://www.w3.org/2000/svg" xmlns:xlink="http://www.w3.org/1999/xlink" x="0px" y="0px"
	 width="22.672px" height="14.667px" viewBox="0 0 22.672 14.667" enable-background="new 0 0 22.672 14.667" xml:space="preserve">
<path fill="#FFFFFF" d="M17.116,13.202v0.035V13.202L17.116,13.202z M17.139,11.499c0.009,0.508,0.006,1.111-0.062,1.393
	l-0.038,0.043l-0.04,0.044l-0.041,0.043l-0.045,0.043l-0.044,0.043l-0.048,0.041l-0.05,0.041l-0.051,0.041l-0.052,0.04l-0.055,0.041
	l-0.056,0.04h-0.001L16.5,13.389l-0.06,0.039l-0.061,0.038h-0.001l-0.062,0.037l-0.063,0.037l-0.066,0.037l-0.067,0.035
	l-0.069,0.036l-0.07,0.033h-0.001l-0.071,0.035l-0.073,0.033l-0.075,0.033l-0.076,0.031l-0.079,0.033l-0.079,0.03l-0.08,0.03
	l-0.082,0.03l0,0l-0.083,0.03l-0.085,0.028l-0.086,0.027l-0.086,0.026h-0.002l-0.087,0.027h-0.001l-0.09,0.026l-0.09,0.024
	l-0.092,0.025l-0.094,0.023l-0.095,0.022l-0.095,0.021l-0.097,0.021l-0.097,0.021l-0.099,0.021l-0.1,0.019l0,0l-0.101,0.018
	l-0.102,0.018l-0.103,0.018l-0.104,0.016l-0.105,0.015L13.369,14.4l-0.105,0.015h-0.002l-0.107,0.011l-0.107,0.013l-0.107,0.012
	h-0.002L12.83,14.46h-0.002l-0.109,0.008l0,0l-0.109,0.008h-0.002l-0.111,0.007l0,0l-0.111,0.006l-0.113,0.007l0,0L12.158,14.5
	l-0.115,0.003l-0.113,0.002h-0.001l-0.115,0.001h-0.117h-0.106l-0.105-0.001l-0.104-0.002L11.278,14.5l-0.104-0.004l-0.103-0.005
	l-0.103-0.004h0l-0.102-0.007l-0.101-0.006h0l-0.1-0.009h-0.001l-0.099-0.008h0l-0.1-0.008l-0.099-0.011l-0.098-0.01h0l-0.097-0.011
	h0l-0.097-0.013l-0.096-0.013H9.976l-0.094-0.013l-0.095-0.015h0l-0.093-0.014l-0.093-0.017l-0.093-0.016l-0.091-0.016h0
	l-0.09-0.018h0l-0.089-0.019l-0.089-0.02l-0.088-0.018l-0.086-0.021H8.969l-0.085-0.021L8.798,14.17h0l-0.084-0.022L8.63,14.126
	l-0.083-0.022L8.466,14.08l-0.081-0.025l-0.08-0.023l-0.079-0.025L8.15,13.98l-0.077-0.027l-0.075-0.026l-0.074-0.027l-0.073-0.026
	l-0.072-0.029l-0.071-0.029l-0.069-0.029L7.57,13.755l-0.067-0.03l-0.065-0.032l-0.065-0.031l-0.063-0.032l-0.061-0.031H7.246
	l-0.061-0.033l-0.059-0.033l-0.058-0.033l-0.057-0.035L6.956,13.43l-0.054-0.037l-0.053-0.034l-0.051-0.037l-0.05-0.036L6.698,13.25
	l-0.047-0.037l-0.046-0.038l-0.044-0.036c-0.003,0.033-0.006,0.065-0.007,0.1v-2.543l0.001-0.028l0-0.028l0.002-0.028l0.003-0.027
	l0.023,0.021l0.021,0.018l0.002,0.002l0.024,0.021l0.019,0.016l0.005,0.005l0.025,0.019l0.017,0.015l0.008,0.005l0.025,0.019
	l0.016,0.013l0.01,0.007l0.027,0.021l0.013,0.009l0.013,0.009l0.028,0.019l0.01,0.008l0.017,0.012l0.027,0.019l0.009,0.005
	l0.02,0.013l0.029,0.019l0.005,0.004l0.023,0.016l0.03,0.018l0.003,0.001l0.027,0.018l0.029,0.018h0.001l0.03,0.018l0.027,0.016
	l0.004,0.002l0.031,0.019l0.024,0.013l0.008,0.004l0.032,0.017l0.021,0.012l0.011,0.006l0.033,0.018l0.018,0.01l0.014,0.008
	l0.033,0.016l0.016,0.008l0.019,0.01l0.034,0.016l0.013,0.007l0.021,0.011l0.035,0.016l0.009,0.005l0.026,0.012l0.036,0.016
	l0.005,0.003l0.031,0.013l0.035,0.016l0.003,0.002l0.034,0.015l0.035,0.014l0.001,0.002l0.038,0.014l0.032,0.015l0.006,0.002
	l0.038,0.016l0.028,0.01l0.01,0.005l0.039,0.016l0.024,0.008l0.015,0.005l0.038,0.016l0.021,0.008l0.019,0.007l0.039,0.013
	l0.018,0.006l0.022,0.008l0.042,0.015l0.013,0.005l0.027,0.009l0.041,0.013l0.01,0.005l0.032,0.01L8.3,11.475l0.005,0.003
	l0.038,0.012l0.041,0.013h0.001l0.042,0.013l0.039,0.011l0.003,0.002l0.042,0.013l0.036,0.009l0.008,0.002l0.043,0.013l0.032,0.008
	l0.013,0.003l0.044,0.013l0.027,0.007l0.017,0.005l0.044,0.011c0.854,0.219,1.853,0.344,2.922,0.344
	c1.217,0,2.344-0.163,3.271-0.438l0.046-0.015l0.007-0.003l0.037-0.012l0.045-0.014l0.006-0.002l0.037-0.011l0.045-0.015
	l0.004-0.002l0.039-0.012l0.042-0.015l0.004-0.002l0.039-0.014l0.042-0.015l0.002-0.002l0.04-0.014l0.042-0.015l0.042-0.016
	l0.038-0.015l0.003-0.001l0.039-0.017l0.037-0.014l0.004-0.002l0.04-0.016l0.035-0.015l0.005-0.001l0.038-0.018l0.033-0.015
	l0.006-0.001l0.038-0.018l0.03-0.013l0.007-0.005l0.038-0.016l0.029-0.013l0.008-0.005l0.037-0.018l0.026-0.013l0.011-0.005
	l0.035-0.018l0.025-0.013l0.011-0.005l0.035-0.017l0.022-0.013l0.012-0.007l0.034-0.018l0.022-0.013l0.013-0.006l0.033-0.02
	l0.02-0.011l0.014-0.008l0.033-0.018l0.018-0.011l0.016-0.01l0.031-0.018l0.016-0.011l0.017-0.01l0.03-0.02l0.015-0.009l0.016-0.01
	l0.03-0.021l0.014-0.008l0.017-0.012l0.029-0.021l0.012-0.008l0.018-0.011l0.028-0.02l0.011-0.008l0.018-0.014l0.027-0.02
	l0.009-0.008l0.046-0.033l0.007-0.007l0.019-0.014l0.026-0.021l0.006-0.007l0.02-0.016l0.025-0.021l0.005-0.005l0.019-0.016
	l0.024-0.022l0.005-0.005l0.019-0.016l0.022-0.022l0.003-0.003l0.021-0.018l0.022-0.022l0.002-0.003l0.04-0.041L17,10.424
	l0.058-0.063l0.02-0.022v-0.002v0.002l0.002,0.01v0.001l0.003,0.01l0,0l0.003,0.011l0,0l0.001,0.012l0,0l0.003,0.011l0.002,0.012
	l0.002,0.009v0.002l0.002,0.01v0.001l0.002,0.01v0.002l0.002,0.009l0,0l0.002,0.012v0.001l0.002,0.01v0.002l0.001,0.011l0.002,0.011
	l0.001,0.012l0.001,0.01l0.002,0.011v0.013l0.002,0.011l0.001,0.012l0.001,0.011l0.001,0.011l0.001,0.012l0.001,0.013v0.009v0.013
	l0.002,0.012v0.011v0.013v0.012v0.011v0.013v0.011v0.013v0.002l0.002,0.014l0,0v0.015v0.003v0.015v0.005v0.014v0.005l0.001,0.017
	v0.006v0.015l0.001,0.009v0.013l0.001,0.012v0.013v0.013l0.001,0.013v0.016v0.011v0.018l0.001,0.01l0.002,0.019v0.008l0.001,0.024
	v0.005v0.026v0.003l0.001,0.03v0.002l0.001,0.032v0.001l0.001,0.032v0.001l0.001,0.032l0.001,0.004v0.029v0.008l0.002,0.027v0.011
	v0.025v0.013l0.002,0.023v0.016v0.021v0.019v0.019l0.001,0.021v0.017l0.001,0.024v0.014l0.001,0.025L17.139,11.499L17.139,11.499
	L17.139,11.499z M17.119,6.766c0,0.233,0.076,1.709-0.042,2.196l-0.003,0.001v0.004c-0.349,0.417-0.96,0.781-1.745,1.059v-0.003
	c-0.988,0.347-2.253,0.555-3.632,0.555c-1.242,0-2.391-0.168-3.328-0.457v0.007C7.603,9.893,6.979,9.579,6.56,9.216L6.554,9.309
	V9.263L6.552,9.314V6.771c0-0.038,0.002-0.074,0.006-0.112L6.56,6.66l0.001-0.005c0.927,0.81,2.878,1.369,5.136,1.369
	c2.479,0,4.591-0.674,5.38-1.616C17.104,6.522,17.119,6.641,17.119,6.766z M17.116,2.595c0,0.233,0.075,1.709-0.042,2.196
	c-0.788,0.942-2.899,1.616-5.379,1.616c-2.258,0-4.209-0.559-5.137-1.37C6.556,5.072,6.553,5.105,6.552,5.138V2.595
	c0-0.037,0.002-0.074,0.006-0.111c0.927,0.81,2.878,1.37,5.137,1.37c2.479,0,4.591-0.675,5.379-1.617
	C17.102,2.351,17.116,2.47,17.116,2.595z M11.833,0c2.279,0,4.125,0.712,4.125,1.591c0,0.879-1.847,1.592-4.125,1.592
	c-2.278,0-4.125-0.712-4.125-1.592C7.709,0.712,9.556,0,11.833,0z"/>
</svg>
